<svg width="400" height="550" viewBox="130 50 240 435" xmlns="http://www.w3.org/2000/svg">
  <style>
    @media (prefers-color-scheme: dark) {
      .led-body {
        stroke: #555;
        stroke-width: 1;
      }
      .adaptive-gnd {
        stroke: rgba(255, 255, 255, 0.3);
        stroke-width: 1;
      }
    }
  </style>
  
  <rect x="140" y="160" width="120" height="220" rx="4" fill="#2d2d2d" class="led-body" />
  
  <g transform="translate(180, 175) skewX(-4)">
    <rect x="0" y="5" width="54" height="14" rx="2" fill="#d93025" stroke="#801a15" stroke-width="1.5" /> 
    <rect x="0" y="88" width="54" height="14" rx="2" fill="#d93025" stroke="#801a15" stroke-width="1.5" /> 
    <rect x="0" y="171" width="54" height="14" rx="2" fill="#d93025" stroke="#801a15" stroke-width="1.5" /> 
    <rect x="-16" y="21" width="14" height="65" rx="2" fill="#d93025" stroke="#801a15" stroke-width="1.5" /> 
    <rect x="56" y="21" width="14" height="65" rx="2" fill="#d93025" stroke="#801a15" stroke-width="1.5" /> 
    <rect x="-16" y="104" width="14" height="65" rx="2" fill="#d93025" stroke="#801a15" stroke-width="1.5" /> 
    <rect x="56" y="104" width="14" height="65" rx="2" fill="#d93025" stroke="#801a15" stroke-width="1.5" /> 
    
    <g font-family="Arial" font-size="11" font-weight="bold" fill="#ffffff" opacity="0.9">
      <text x="27" y="16" text-anchor="middle">A</text>
      <text x="63" y="58" text-anchor="middle">B</text>
      <text x="63" y="141" text-anchor="middle">C</text>
      <text x="27" y="182" text-anchor="middle">D</text>
      <text x="-9" y="141" text-anchor="middle">E</text>
      <text x="-9" y="58" text-anchor="middle">F</text>
      <text x="27" y="99" text-anchor="middle">G</text>
    </g>
  </g>

  <circle cx="245" cy="353" r="9" fill="#d93025" stroke="#801a15" stroke-width="1.5" />
  <text x="245" y="356" font-family="Arial" font-size="7" font-weight="bold" fill="white" text-anchor="middle">DP</text>

  <g font-family="Arial" font-size="10" font-weight="bold">
    <g transform="translate(160, 380)">
      <rect x="-5" y="0" width="10" height="15" fill="#bdc3c7" />
      <line x1="0" y1="15" x2="0" y2="40" stroke="#888" stroke-width="2" />
      <g transform="translate(0, 45) rotate(90)">
        <rect x="0" y="-9" width="20" height="18" rx="2" fill="#555" /><text x="10" y="4" fill="white" text-anchor="middle">1</text>
        <rect x="22" y="-9" width="20" height="18" rx="2" fill="#a44ca0" /><text x="32" y="4" fill="white" text-anchor="middle">E</text>
      </g>
    </g>
    <g transform="translate(180, 380)">
      <rect x="-5" y="0" width="10" height="15" fill="#bdc3c7" />
      <line x1="0" y1="15" x2="0" y2="40" stroke="#888" stroke-width="2" />
      <g transform="translate(0, 45) rotate(90)">
        <rect x="0" y="-9" width="20" height="18" rx="2" fill="#555" /><text x="10" y="4" fill="white" text-anchor="middle">2</text>
        <rect x="22" y="-9" width="20" height="18" rx="2" fill="#a44ca0" /><text x="32" y="4" fill="white" text-anchor="middle">D</text>
      </g>
    </g>
    <g transform="translate(200, 380)">
      <rect x="-5" y="0" width="10" height="15" fill="#bdc3c7" />
      <line x1="0" y1="15" x2="0" y2="40" stroke="#888" stroke-width="2" />
      <g transform="translate(0, 45) rotate(90)">
        <rect x="0" y="-9" width="20" height="18" rx="2" fill="#555" /><text x="10" y="4" fill="white" text-anchor="middle">3</text>
        <rect x="22" y="-9" width="34" height="18" rx="2" fill="#1a1a1a" class="adaptive-gnd" /><text x="39" y="4" fill="white" text-anchor="middle">GND</text>
      </g>
    </g>
    <g transform="translate(220, 380)">
      <rect x="-5" y="0" width="10" height="15" fill="#bdc3c7" />
      <line x1="0" y1="15" x2="0" y2="40" stroke="#888" stroke-width="2" />
      <g transform="translate(0, 45) rotate(90)">
        <rect x="0" y="-9" width="20" height="18" rx="2" fill="#555" /><text x="10" y="4" fill="white" text-anchor="middle">4</text>
        <rect x="22" y="-9" width="20" height="18" rx="2" fill="#a44ca0" /><text x="32" y="4" fill="white" text-anchor="middle">C</text>
      </g>
    </g>
    <g transform="translate(240, 380)">
      <rect x="-5" y="0" width="10" height="15" fill="#bdc3c7" />
      <line x1="0" y1="15" x2="0" y2="40" stroke="#888" stroke-width="2" />
      <g transform="translate(0, 45) rotate(90)">
        <rect x="0" y="-9" width="20" height="18" rx="2" fill="#555" /><text x="10" y="4" fill="white" text-anchor="middle">5</text>
        <rect x="22" y="-9" width="20" height="18" rx="2" fill="#a44ca0" /><text x="32" y="4" fill="white" text-anchor="middle">DP</text>
      </g>
    </g>

    <g transform="translate(160, 160)">
      <rect x="-5" y="-15" width="10" height="15" fill="#bdc3c7" />
      <line x1="0" y1="-15" x2="0" y2="-40" stroke="#888" stroke-width="2" />
      <g transform="translate(0, -45) rotate(-90)">
        <rect x="0" y="-9" width="20" height="18" rx="2" fill="#555" /><text x="10" y="4" fill="white" text-anchor="middle">10</text>
        <rect x="22" y="-9" width="20" height="18" rx="2" fill="#a44ca0" /><text x="32" y="4" fill="white" text-anchor="middle">G</text>
      </g>
    </g>
    <g transform="translate(180, 160)">
      <rect x="-5" y="-15" width="10" height="15" fill="#bdc3c7" />
      <line x1="0" y1="-15" x2="0" y2="-40" stroke="#888" stroke-width="2" />
      <g transform="translate(0, -45) rotate(-90)">
        <rect x="0" y="-9" width="20" height="18" rx="2" fill="#555" /><text x="10" y="4" fill="white" text-anchor="middle">9</text>
        <rect x="22" y="-9" width="20" height="18" rx="2" fill="#a44ca0" /><text x="32" y="4" fill="white" text-anchor="middle">F</text>
      </g>
    </g>
    <g transform="translate(200, 160)">
      <rect x="-5" y="-15" width="10" height="15" fill="#bdc3c7" />
      <line x1="0" y1="-15" x2="0" y2="-40" stroke="#888" stroke-width="2" />
      <g transform="translate(0, -45) rotate(-90)">
        <rect x="0" y="-9" width="20" height="18" rx="2" fill="#555" /><text x="10" y="4" fill="white" text-anchor="middle">8</text>
        <rect x="22" y="-9" width="34" height="18" rx="2" fill="#1a1a1a" class="adaptive-gnd" /><text x="39" y="4" fill="white" text-anchor="middle">GND</text>
      </g>
    </g>
    <g transform="translate(220, 160)">
      <rect x="-5" y="-15" width="10" height="15" fill="#bdc3c7" />
      <line x1="0" y1="-15" x2="0" y2="-40" stroke="#888" stroke-width="2" />
      <g transform="translate(0, -45) rotate(-90)">
        <rect x="0" y="-9" width="20" height="18" rx="2" fill="#555" /><text x="10" y="4" fill="white" text-anchor="middle">7</text>
        <rect x="22" y="-9" width="20" height="18" rx="2" fill="#a44ca0" /><text x="32" y="4" fill="white" text-anchor="middle">A</text>
      </g>
    </g>
    <g transform="translate(240, 160)">
      <rect x="-5" y="-15" width="10" height="15" fill="#bdc3c7" />
      <line x1="0" y1="-15" x2="0" y2="-40" stroke="#888" stroke-width="2" />
      <g transform="translate(0, -45) rotate(-90)">
        <rect x="0" y="-9" width="20" height="18" rx="2" fill="#555" /><text x="10" y="4" fill="white" text-anchor="middle">6</text>
        <rect x="22" y="-9" width="20" height="18" rx="2" fill="#a44ca0" /><text x="32" y="4" fill="white" text-anchor="middle">B</text>
      </g>
    </g>
  </g>
</svg>