<svg xmlns="http://www.w3.org/2000/svg" viewBox="0 0 800 300" width="800" height="300">
  <line x1="100" y1="150" x2="700" y2="150" stroke="#FFFFFF" stroke-width="4.75" stroke-linecap="round" />
  <line x1="100" y1="150" x2="700" y2="150" stroke="#000000" stroke-width="4" stroke-linecap="round" />

  <line x1="100" y1="135" x2="100" y2="165" stroke="#FFFFFF" stroke-width="4.75" />
  <line x1="100" y1="135" x2="100" y2="165" stroke="#000000" stroke-width="4" />
  <text x="100" y="195" font-family="system-ui, -apple-system, sans-serif" font-size="20" font-weight="bold" text-anchor="middle" fill="#000000" stroke="#FFFFFF" stroke-width="3" paint-order="stroke fill">0.0</text>

  <line x1="700" y1="135" x2="700" y2="165" stroke="#FFFFFF" stroke-width="4.75" />
  <line x1="700" y1="135" x2="700" y2="165" stroke="#000000" stroke-width="4" />
  <text x="700" y="195" font-family="system-ui, -apple-system, sans-serif" font-size="20" font-weight="bold" text-anchor="middle" fill="#000000" stroke="#FFFFFF" stroke-width="3" paint-order="stroke fill">1.0</text>
  <circle cx="700" cy="150" r="8" stroke="#FFFFFF" stroke-width="4.75" fill="none" />
  <circle cx="700" cy="150" r="8" stroke="#000000" stroke-width="4" fill="none" />

  <g>
    <line x1="160" y1="145" x2="160" y2="155" stroke="#FFFFFF" stroke-width="2.75" />
    <line x1="160" y1="145" x2="160" y2="155" stroke="#000000" stroke-width="2" />
    <line x1="220" y1="145" x2="220" y2="155" stroke="#FFFFFF" stroke-width="2.75" />
    <line x1="220" y1="145" x2="220" y2="155" stroke="#000000" stroke-width="2" />
    <line x1="280" y1="145" x2="280" y2="155" stroke="#FFFFFF" stroke-width="2.75" />
    <line x1="280" y1="145" x2="280" y2="155" stroke="#000000" stroke-width="2" />
    <line x1="340" y1="145" x2="340" y2="155" stroke="#FFFFFF" stroke-width="2.75" />
    <line x1="340" y1="145" x2="340" y2="155" stroke="#000000" stroke-width="2" />
    <line x1="400" y1="145" x2="400" y2="155" stroke="#FFFFFF" stroke-width="2.75" />
    <line x1="400" y1="145" x2="400" y2="155" stroke="#000000" stroke-width="2" />
    <line x1="460" y1="145" x2="460" y2="155" stroke="#FFFFFF" stroke-width="2.75" />
    <line x1="460" y1="145" x2="460" y2="155" stroke="#000000" stroke-width="2" />
    <line x1="520" y1="145" x2="520" y2="155" stroke="#FFFFFF" stroke-width="2.75" />
    <line x1="520" y1="145" x2="520" y2="155" stroke="#000000" stroke-width="2" />
    <line x1="580" y1="145" x2="580" y2="155" stroke="#FFFFFF" stroke-width="2.75" />
    <line x1="580" y1="145" x2="580" y2="155" stroke="#000000" stroke-width="2" />
    <line x1="640" y1="145" x2="640" y2="155" stroke="#FFFFFF" stroke-width="2.75" />
    <line x1="640" y1="145" x2="640" y2="155" stroke="#000000" stroke-width="2" />
  </g>

  <path d="M 100 142 L 486.14 142 A 16 16 0 1 1 486.14 158 L 100 158 Z" stroke="#FF1744" stroke-width="4" fill="#FF1744" fill-opacity="0.3" />

  <circle cx="100" cy="150" r="10" fill="#FF1744" />

  <line x1="500" y1="260" x2="500" y2="185" stroke="#FFFFFF" stroke-width="5.75" stroke-linecap="round" />
  <line x1="500" y1="260" x2="500" y2="185" stroke="#000000" stroke-width="5" stroke-linecap="round" />
  <polygon points="490,190 510,190 500,170" fill="#000000" stroke="#FFFFFF" stroke-width="1.5" stroke-linejoin="round" />
  <text x="500" y="285" font-family="system-ui, -apple-system, sans-serif" font-size="24" font-weight="bold" text-anchor="middle" fill="#000000" stroke="#FFFFFF" stroke-width="3" paint-order="stroke fill">p = 2/3</text>

  <text x="300" y="115" font-family="monospace" font-size="18" font-weight="bold" text-anchor="middle" fill="#FF1744">random() &lt; p</text>
  <text x="600" y="115" font-family="monospace" font-size="18" font-weight="bold" text-anchor="middle" fill="#000000" stroke="#FFFFFF" stroke-width="3" paint-order="stroke fill">random() &gt;= p</text>

  <text x="300" y="220" font-family="system-ui, -apple-system, sans-serif" font-size="18" font-style="italic" text-anchor="middle" fill="#FF1744">66.6% chance</text>
  <text x="600" y="220" font-family="system-ui, -apple-system, sans-serif" font-size="18" font-style="italic" text-anchor="middle" fill="#000000" stroke="#FFFFFF" stroke-width="3" paint-order="stroke fill">33.3% chance</text>
</svg>