<svg width="500" height="420" xmlns="http://www.w3.org/2000/svg">
  <rect x="200" y="20" width="100" height="340" rx="4" fill="#2d2d2d" />
  <circle cx="215" cy="40" r="6" fill="#1a1a1a" />
  
  <text x="250" y="190" font-family="Arial" font-size="28" fill="#d1d1d1" text-anchor="middle" dominant-baseline="middle" transform="rotate(90, 250, 190)" font-weight="bold" letter-spacing="3">L293D</text>

  <g font-family="Arial" font-size="12" font-weight="bold" stroke="#999999">
    
    <g transform="translate(0, 45)">
      <rect x="35" y="0" width="45" height="20" rx="3" fill="#f47b20" stroke="none" />
      <text x="57" y="14" fill="white" text-anchor="middle" stroke="none">EN1</text>
      <rect x="85" y="0" width="25" height="20" rx="3" fill="#555" stroke="none" />
      <text x="97" y="14" fill="white" text-anchor="middle" stroke="none">1</text>
      <line x1="110" y1="10" x2="185" y2="10" stroke-width="2" />
      <rect x="185" y="2" width="15" height="16" fill="#bdc3c7" stroke="none" />
    </g>

    <g transform="translate(0, 83)">
      <rect x="35" y="0" width="45" height="20" rx="3" fill="#f9ab00" stroke="none" />
      <text x="57" y="14" fill="white" text-anchor="middle" stroke="none">IN1</text>
      <rect x="85" y="0" width="25" height="20" rx="3" fill="#555" stroke="none" />
      <text x="97" y="14" fill="white" text-anchor="middle" stroke="none">2</text>
      <line x1="110" y1="10" x2="185" y2="10" stroke-width="2" />
      <rect x="185" y="2" width="15" height="16" fill="#bdc3c7" stroke="none" />
    </g>

    <g transform="translate(0, 121)">
      <rect x="35" y="0" width="45" height="20" rx="3" fill="#a44ca0" stroke="none" />
      <text x="57" y="14" fill="white" text-anchor="middle" stroke="none">OUT1</text>
      <rect x="85" y="0" width="25" height="20" rx="3" fill="#555" stroke="none" />
      <text x="97" y="14" fill="white" text-anchor="middle" stroke="none">3</text>
      <line x1="110" y1="10" x2="185" y2="10" stroke-width="2" />
      <rect x="185" y="2" width="15" height="16" fill="#bdc3c7" stroke="none" />
    </g>

    <g transform="translate(0, 159)">
      <rect x="35" y="0" width="45" height="20" rx="3" fill="#333" stroke="none" />
      <text x="57" y="14" fill="white" text-anchor="middle" stroke="none">GND</text>
      <rect x="85" y="0" width="25" height="20" rx="3" fill="#555" stroke="none" />
      <text x="97" y="14" fill="white" text-anchor="middle" stroke="none">8</text>
      <line x1="110" y1="10" x2="185" y2="10" stroke-width="2" />
      <rect x="185" y="2" width="15" height="16" fill="#bdc3c7" stroke="none" />
    </g>

    <g transform="translate(0, 197)">
      <rect x="35" y="0" width="45" height="20" rx="3" fill="#333" stroke="none" />
      <text x="57" y="14" fill="white" text-anchor="middle" stroke="none">GND</text>
      <rect x="85" y="0" width="25" height="20" rx="3" fill="#555" stroke="none" />
      <text x="97" y="14" fill="white" text-anchor="middle" stroke="none">8</text>
      <line x1="110" y1="10" x2="185" y2="10" stroke-width="2" />
      <rect x="185" y="2" width="15" height="16" fill="#bdc3c7" stroke="none" />
    </g>

    <g transform="translate(0, 235)">
      <rect x="35" y="0" width="45" height="20" rx="3" fill="#a44ca0" stroke="none" />
      <text x="57" y="14" fill="white" text-anchor="middle" stroke="none">OUT2</text>
      <rect x="85" y="0" width="25" height="20" rx="3" fill="#555" stroke="none" />
      <text x="97" y="14" fill="white" text-anchor="middle" stroke="none">6</text>
      <line x1="110" y1="10" x2="185" y2="10" stroke-width="2" />
      <rect x="185" y="2" width="15" height="16" fill="#bdc3c7" stroke="none" />
    </g>

    <g transform="translate(0, 273)">
      <rect x="35" y="0" width="45" height="20" rx="3" fill="#f9ab00" stroke="none" />
      <text x="57" y="14" fill="white" text-anchor="middle" stroke="none">IN2</text>
      <rect x="85" y="0" width="25" height="20" rx="3" fill="#555" stroke="none" />
      <text x="97" y="14" fill="white" text-anchor="middle" stroke="none">7</text>
      <line x1="110" y1="10" x2="185" y2="10" stroke-width="2" />
      <rect x="185" y="2" width="15" height="16" fill="#bdc3c7" stroke="none" />
    </g>

    <g transform="translate(0, 311)">
      <rect x="35" y="0" width="45" height="20" rx="3" fill="#d93025" stroke="none" />
      <text x="57" y="14" fill="white" text-anchor="middle" stroke="none">VCC<tspan dy="3" font-size="9">2</tspan></text>
      <rect x="85" y="0" width="25" height="20" rx="3" fill="#555" stroke="none" />
      <text x="97" y="14" fill="white" text-anchor="middle" stroke="none">8</text>
      <line x1="110" y1="10" x2="185" y2="10" stroke-width="2" />
      <rect x="185" y="2" width="15" height="16" fill="#bdc3c7" stroke="none" />
    </g>

    <g transform="translate(300, 45)">
      <rect x="0" y="2" width="15" height="16" fill="#bdc3c7" stroke="none" />
      <line x1="15" y1="10" x2="90" y2="10" stroke-width="2" />
      <rect x="90" y="0" width="25" height="20" rx="3" fill="#555" stroke="none" />
      <text x="102" y="14" fill="white" text-anchor="middle" stroke="none">16</text>
      <rect x="120" y="0" width="45" height="20" rx="3" fill="#d93025" stroke="none" />
      <text x="142" y="14" fill="white" text-anchor="middle" stroke="none">VCC<tspan dy="3" font-size="9">1</tspan></text>
    </g>

    <g transform="translate(300, 83)">
      <rect x="0" y="2" width="15" height="16" fill="#bdc3c7" stroke="none" />
      <line x1="15" y1="10" x2="90" y2="10" stroke-width="2" />
      <rect x="90" y="0" width="25" height="20" rx="3" fill="#555" stroke="none" />
      <text x="102" y="14" fill="white" text-anchor="middle" stroke="none">15</text>
      <rect x="120" y="0" width="45" height="20" rx="3" fill="#f9ab00" stroke="none" />
      <text x="142" y="14" fill="white" text-anchor="middle" stroke="none">IN4</text>
    </g>

    <g transform="translate(300, 121)">
      <rect x="0" y="2" width="15" height="16" fill="#bdc3c7" stroke="none" />
      <line x1="15" y1="10" x2="90" y2="10" stroke-width="2" />
      <rect x="90" y="0" width="25" height="20" rx="3" fill="#555" stroke="none" />
      <text x="102" y="14" fill="white" text-anchor="middle" stroke="none">14</text>
      <rect x="120" y="0" width="45" height="20" rx="3" fill="#a44ca0" stroke="none" />
      <text x="142" y="14" fill="white" text-anchor="middle" stroke="none">OUT4</text>
    </g>

    <g transform="translate(300, 159)">
      <rect x="0" y="2" width="15" height="16" fill="#bdc3c7" stroke="none" />
      <line x1="15" y1="10" x2="90" y2="10" stroke-width="2" />
      <rect x="90" y="0" width="25" height="20" rx="3" fill="#555" stroke="none" />
      <text x="102" y="14" fill="white" text-anchor="middle" stroke="none">13</text>
      <rect x="120" y="0" width="45" height="20" rx="3" fill="#333" stroke="none" />
      <text x="142" y="15" fill="white" text-anchor="middle" stroke="none">GND</text>  
    </g>

    <g transform="translate(300, 197)">
      <rect x="0" y="2" width="15" height="16" fill="#bdc3c7" stroke="none" />
      <line x1="15" y1="10" x2="90" y2="10" stroke-width="2" />
      <rect x="90" y="0" width="25" height="20" rx="3" fill="#555" stroke="none" />
      <text x="102" y="14" fill="white" text-anchor="middle" stroke="none">13</text>
      <rect x="120" y="0" width="45" height="20" rx="3" fill="#333" stroke="none" />
      <text x="142" y="15" fill="white" text-anchor="middle" stroke="none">GND</text>
    </g>

    <g transform="translate(300, 235)">
      <rect x="0" y="2" width="15" height="16" fill="#bdc3c7" stroke="none" />
      <line x1="15" y1="10" x2="90" y2="10" stroke-width="2" />
      <rect x="90" y="0" width="25" height="20" rx="3" fill="#555" stroke="none" />
      <text x="102" y="14" fill="white" text-anchor="middle" stroke="none">11</text>
      <rect x="120" y="0" width="45" height="20" rx="3" fill="#a44ca0" stroke="none" />
      <text x="142" y="14" fill="white" text-anchor="middle" stroke="none">OUT3</text>
    </g>

    <g transform="translate(300, 273)">
      <rect x="0" y="2" width="15" height="16" fill="#bdc3c7" stroke="none" />
      <line x1="15" y1="10" x2="90" y2="10" stroke-width="2" />
      <rect x="90" y="0" width="25" height="20" rx="3" fill="#555" stroke="none" />
      <text x="102" y="14" fill="white" text-anchor="middle" stroke="none">10</text>
      <rect x="120" y="0" width="45" height="20" rx="3" fill="#f9ab00" stroke="none" />
      <text x="142" y="15" fill="white" text-anchor="middle" stroke="none">IN3</text>
    </g>

    <g transform="translate(300, 311)">
      <rect x="0" y="2" width="15" height="16" fill="#bdc3c7" stroke="none" />
      <line x1="15" y1="10" x2="90" y2="10" stroke-width="2" />
      <rect x="90" y="0" width="25" height="20" rx="3" fill="#555" stroke="none" />
      <text x="102" y="14" fill="white" text-anchor="middle" stroke="none">9</text>
      <rect x="120" y="0" width="45" height="20" rx="3" fill="#f47b20" stroke="none" />
      <text x="142" y="14" fill="white" text-anchor="middle" stroke="none">EN2</text>
    </g>
  </g>
</svg>